<mxfile host="app.diagrams.net" modified="2023-03-28T05:49:38.455Z" agent="5.0 (Macintosh; Intel Mac OS X 10_15_7) AppleWebKit/537.36 (KHTML, like Gecko) Chrome/111.0.0.0 Safari/537.36" etag="ve5nvoE5_la-xZV5bayG" version="21.0.8" type="github">
  <diagram name="第 1 页" id="738VX-xTPERqi8VSFKUB">
    <mxGraphModel dx="1357" dy="568" grid="1" gridSize="10" guides="1" tooltips="1" connect="1" arrows="1" fold="1" page="1" pageScale="1" pageWidth="4681" pageHeight="3300" math="0" shadow="0">
      <root>
        <mxCell id="0" />
        <mxCell id="1" parent="0" />
        <mxCell id="xm8e55yrbuL3bT286_5s-25" value="" style="rounded=0;whiteSpace=wrap;html=1;" vertex="1" parent="1">
          <mxGeometry x="1090" y="370" width="180" height="310" as="geometry" />
        </mxCell>
        <mxCell id="xm8e55yrbuL3bT286_5s-22" value="" style="rounded=1;whiteSpace=wrap;html=1;" vertex="1" parent="1">
          <mxGeometry x="250" y="200" width="760" height="90" as="geometry" />
        </mxCell>
        <mxCell id="xm8e55yrbuL3bT286_5s-23" value="" style="rounded=1;whiteSpace=wrap;html=1;" vertex="1" parent="1">
          <mxGeometry x="260" y="590" width="750" height="90" as="geometry" />
        </mxCell>
        <mxCell id="xm8e55yrbuL3bT286_5s-24" value="" style="rounded=1;whiteSpace=wrap;html=1;" vertex="1" parent="1">
          <mxGeometry x="260" y="375" width="750" height="140" as="geometry" />
        </mxCell>
        <mxCell id="xm8e55yrbuL3bT286_5s-42" style="edgeStyle=orthogonalEdgeStyle;rounded=0;orthogonalLoop=1;jettySize=auto;html=1;entryX=0.5;entryY=0;entryDx=0;entryDy=0;" edge="1" parent="1" source="xm8e55yrbuL3bT286_5s-29" target="xm8e55yrbuL3bT286_5s-36">
          <mxGeometry relative="1" as="geometry" />
        </mxCell>
        <mxCell id="xm8e55yrbuL3bT286_5s-29" value="updateCaptureSettings" style="rounded=1;whiteSpace=wrap;html=1;" vertex="1" parent="1">
          <mxGeometry x="880" y="215" width="90" height="60" as="geometry" />
        </mxCell>
        <mxCell id="xm8e55yrbuL3bT286_5s-56" style="edgeStyle=orthogonalEdgeStyle;rounded=0;orthogonalLoop=1;jettySize=auto;html=1;entryX=0.5;entryY=0;entryDx=0;entryDy=0;" edge="1" parent="1" source="xm8e55yrbuL3bT286_5s-30" target="xm8e55yrbuL3bT286_5s-34">
          <mxGeometry relative="1" as="geometry" />
        </mxCell>
        <mxCell id="xm8e55yrbuL3bT286_5s-30" value="startResumeCapture" style="rounded=1;whiteSpace=wrap;html=1;" vertex="1" parent="1">
          <mxGeometry x="280" y="215" width="120" height="55" as="geometry" />
        </mxCell>
        <mxCell id="xm8e55yrbuL3bT286_5s-41" style="edgeStyle=orthogonalEdgeStyle;rounded=0;orthogonalLoop=1;jettySize=auto;html=1;entryX=0.5;entryY=0;entryDx=0;entryDy=0;" edge="1" parent="1" source="xm8e55yrbuL3bT286_5s-31" target="xm8e55yrbuL3bT286_5s-35">
          <mxGeometry relative="1" as="geometry" />
        </mxCell>
        <mxCell id="xm8e55yrbuL3bT286_5s-31" value="startRealtime" style="rounded=1;whiteSpace=wrap;html=1;" vertex="1" parent="1">
          <mxGeometry x="435" y="215" width="120" height="60" as="geometry" />
        </mxCell>
        <mxCell id="xm8e55yrbuL3bT286_5s-74" style="edgeStyle=orthogonalEdgeStyle;rounded=0;orthogonalLoop=1;jettySize=auto;html=1;entryX=0.5;entryY=0;entryDx=0;entryDy=0;" edge="1" parent="1" source="xm8e55yrbuL3bT286_5s-34" target="xm8e55yrbuL3bT286_5s-48">
          <mxGeometry relative="1" as="geometry" />
        </mxCell>
        <mxCell id="xm8e55yrbuL3bT286_5s-34" value="startResumeCapture" style="rounded=1;whiteSpace=wrap;html=1;" vertex="1" parent="1">
          <mxGeometry x="280" y="415" width="120" height="60" as="geometry" />
        </mxCell>
        <mxCell id="xm8e55yrbuL3bT286_5s-73" style="edgeStyle=orthogonalEdgeStyle;rounded=0;orthogonalLoop=1;jettySize=auto;html=1;entryX=0.5;entryY=0;entryDx=0;entryDy=0;" edge="1" parent="1" source="xm8e55yrbuL3bT286_5s-35" target="xm8e55yrbuL3bT286_5s-50">
          <mxGeometry relative="1" as="geometry" />
        </mxCell>
        <mxCell id="xm8e55yrbuL3bT286_5s-35" value="startRealtime" style="rounded=1;whiteSpace=wrap;html=1;" vertex="1" parent="1">
          <mxGeometry x="435" y="415" width="120" height="55" as="geometry" />
        </mxCell>
        <mxCell id="xm8e55yrbuL3bT286_5s-36" value="updateCaptureSettings" style="rounded=1;whiteSpace=wrap;html=1;" vertex="1" parent="1">
          <mxGeometry x="875" y="415" width="100" height="55" as="geometry" />
        </mxCell>
        <mxCell id="xm8e55yrbuL3bT286_5s-45" value="GUI" style="text;html=1;align=center;verticalAlign=middle;resizable=0;points=[];autosize=1;strokeColor=none;fillColor=none;" vertex="1" parent="1">
          <mxGeometry x="200" y="200" width="40" height="30" as="geometry" />
        </mxCell>
        <mxCell id="xm8e55yrbuL3bT286_5s-46" value="Java" style="text;html=1;align=center;verticalAlign=middle;resizable=0;points=[];autosize=1;strokeColor=none;fillColor=none;" vertex="1" parent="1">
          <mxGeometry x="200" y="390" width="50" height="30" as="geometry" />
        </mxCell>
        <mxCell id="xm8e55yrbuL3bT286_5s-47" value="c++" style="text;html=1;align=center;verticalAlign=middle;resizable=0;points=[];autosize=1;strokeColor=none;fillColor=none;" vertex="1" parent="1">
          <mxGeometry x="215" y="590" width="40" height="30" as="geometry" />
        </mxCell>
        <mxCell id="xm8e55yrbuL3bT286_5s-48" value="startResumetCapture" style="rounded=1;whiteSpace=wrap;html=1;" vertex="1" parent="1">
          <mxGeometry x="280" y="605" width="120" height="60" as="geometry" />
        </mxCell>
        <mxCell id="xm8e55yrbuL3bT286_5s-50" value="startRealtime" style="rounded=1;whiteSpace=wrap;html=1;" vertex="1" parent="1">
          <mxGeometry x="435" y="605" width="120" height="60" as="geometry" />
        </mxCell>
        <mxCell id="xm8e55yrbuL3bT286_5s-71" style="edgeStyle=orthogonalEdgeStyle;rounded=0;orthogonalLoop=1;jettySize=auto;html=1;" edge="1" parent="1" source="xm8e55yrbuL3bT286_5s-57" target="xm8e55yrbuL3bT286_5s-58">
          <mxGeometry relative="1" as="geometry" />
        </mxCell>
        <mxCell id="xm8e55yrbuL3bT286_5s-57" value="stopPauseCapture" style="rounded=1;whiteSpace=wrap;html=1;" vertex="1" parent="1">
          <mxGeometry x="570" y="215" width="120" height="60" as="geometry" />
        </mxCell>
        <mxCell id="xm8e55yrbuL3bT286_5s-72" style="edgeStyle=orthogonalEdgeStyle;rounded=0;orthogonalLoop=1;jettySize=auto;html=1;entryX=0.5;entryY=0;entryDx=0;entryDy=0;" edge="1" parent="1" source="xm8e55yrbuL3bT286_5s-58" target="xm8e55yrbuL3bT286_5s-59">
          <mxGeometry relative="1" as="geometry">
            <Array as="points">
              <mxPoint x="630" y="605" />
            </Array>
          </mxGeometry>
        </mxCell>
        <mxCell id="xm8e55yrbuL3bT286_5s-58" value="stopPauseCapture" style="rounded=1;whiteSpace=wrap;html=1;" vertex="1" parent="1">
          <mxGeometry x="570" y="415" width="120" height="55" as="geometry" />
        </mxCell>
        <mxCell id="xm8e55yrbuL3bT286_5s-59" value="stopPauseCapture" style="rounded=1;whiteSpace=wrap;html=1;" vertex="1" parent="1">
          <mxGeometry x="575" y="605" width="120" height="60" as="geometry" />
        </mxCell>
        <mxCell id="xm8e55yrbuL3bT286_5s-60" value="capture_settings" style="rounded=1;whiteSpace=wrap;html=1;" vertex="1" parent="1">
          <mxGeometry x="1130" y="412.5" width="120" height="60" as="geometry" />
        </mxCell>
        <mxCell id="xm8e55yrbuL3bT286_5s-62" value="capture_status" style="rounded=1;whiteSpace=wrap;html=1;" vertex="1" parent="1">
          <mxGeometry x="1130" y="590" width="120" height="70" as="geometry" />
        </mxCell>
        <mxCell id="xm8e55yrbuL3bT286_5s-68" value="" style="endArrow=classic;startArrow=classic;html=1;rounded=0;" edge="1" parent="1">
          <mxGeometry width="50" height="50" relative="1" as="geometry">
            <mxPoint x="1010" y="440" as="sourcePoint" />
            <mxPoint x="1090" y="443" as="targetPoint" />
          </mxGeometry>
        </mxCell>
        <mxCell id="xm8e55yrbuL3bT286_5s-70" value="" style="endArrow=classic;startArrow=classic;html=1;rounded=0;entryX=-0.006;entryY=0.845;entryDx=0;entryDy=0;entryPerimeter=0;exitX=1;exitY=0.5;exitDx=0;exitDy=0;" edge="1" parent="1" source="xm8e55yrbuL3bT286_5s-23" target="xm8e55yrbuL3bT286_5s-25">
          <mxGeometry width="50" height="50" relative="1" as="geometry">
            <mxPoint x="810" y="640" as="sourcePoint" />
            <mxPoint x="860" y="590" as="targetPoint" />
          </mxGeometry>
        </mxCell>
        <mxCell id="xm8e55yrbuL3bT286_5s-80" style="edgeStyle=orthogonalEdgeStyle;rounded=0;orthogonalLoop=1;jettySize=auto;html=1;entryX=0.417;entryY=0;entryDx=0;entryDy=0;entryPerimeter=0;" edge="1" parent="1" source="xm8e55yrbuL3bT286_5s-75" target="xm8e55yrbuL3bT286_5s-78">
          <mxGeometry relative="1" as="geometry" />
        </mxCell>
        <mxCell id="xm8e55yrbuL3bT286_5s-75" value="stopRealtime" style="rounded=1;whiteSpace=wrap;html=1;" vertex="1" parent="1">
          <mxGeometry x="730" y="415" width="120" height="60" as="geometry" />
        </mxCell>
        <mxCell id="xm8e55yrbuL3bT286_5s-77" style="edgeStyle=orthogonalEdgeStyle;rounded=0;orthogonalLoop=1;jettySize=auto;html=1;" edge="1" parent="1" source="xm8e55yrbuL3bT286_5s-76" target="xm8e55yrbuL3bT286_5s-75">
          <mxGeometry relative="1" as="geometry" />
        </mxCell>
        <mxCell id="xm8e55yrbuL3bT286_5s-76" value="stopRealtime" style="rounded=1;whiteSpace=wrap;html=1;" vertex="1" parent="1">
          <mxGeometry x="730" y="215" width="120" height="60" as="geometry" />
        </mxCell>
        <mxCell id="xm8e55yrbuL3bT286_5s-78" value="stopRealtime" style="rounded=1;whiteSpace=wrap;html=1;" vertex="1" parent="1">
          <mxGeometry x="740" y="600" width="120" height="60" as="geometry" />
        </mxCell>
        <mxCell id="xm8e55yrbuL3bT286_5s-81" value="fileName" style="text;html=1;align=center;verticalAlign=middle;resizable=0;points=[];autosize=1;strokeColor=none;fillColor=none;" vertex="1" parent="1">
          <mxGeometry x="330" y="310" width="70" height="30" as="geometry" />
        </mxCell>
        <mxCell id="xm8e55yrbuL3bT286_5s-83" value="isResume" style="text;html=1;align=center;verticalAlign=middle;resizable=0;points=[];autosize=1;strokeColor=none;fillColor=none;" vertex="1" parent="1">
          <mxGeometry x="330" y="335" width="80" height="30" as="geometry" />
        </mxCell>
        <mxCell id="xm8e55yrbuL3bT286_5s-84" value="fileName" style="text;html=1;align=center;verticalAlign=middle;resizable=0;points=[];autosize=1;strokeColor=none;fillColor=none;" vertex="1" parent="1">
          <mxGeometry x="340" y="520" width="70" height="30" as="geometry" />
        </mxCell>
        <mxCell id="xm8e55yrbuL3bT286_5s-85" value="isResume" style="text;html=1;align=center;verticalAlign=middle;resizable=0;points=[];autosize=1;strokeColor=none;fillColor=none;" vertex="1" parent="1">
          <mxGeometry x="340" y="545" width="80" height="30" as="geometry" />
        </mxCell>
      </root>
    </mxGraphModel>
  </diagram>
</mxfile>
